<svg width="25" height="52" viewBox="0 0 25 52" fill="none" xmlns="http://www.w3.org/2000/svg">
<path fill-rule="evenodd" clip-rule="evenodd" d="M7.55335 51.6C9.66003 51.5991 11.659 50.6539 13.0162 49.0167C9.99354 46.6476 5.66818 47.1307 3.22432 50.1106C4.46985 51.0799 5.99589 51.6036 7.56481 51.6M4.41513 43.1637C4.41696 41.5734 3.90163 40.0271 2.94926 38.7652C0.0297337 41.254 -0.44932 45.6349 1.86131 48.7142C3.47678 47.3375 4.41143 45.3061 4.41513 43.1637ZM15.043 45.1883C17.084 44.6343 18.7784 43.1897 19.6698 41.2436C16.1454 39.7684 12.1026 41.3735 10.4964 44.8858C11.8936 45.4676 13.474 45.6072 15.043 45.1883ZM9.85521 37.8575C9.45028 36.3263 8.56095 34.9729 7.32429 34.0059C5.1428 37.1781 5.79815 41.5321 8.81307 43.8968C10.0224 42.1394 10.404 39.9281 9.85521 37.8575ZM21.8002 36.5541C23.4267 35.1915 24.3781 33.1687 24.3999 31.0269C20.584 31.158 17.5508 34.3272 17.5284 38.2065C19.0925 38.1483 20.594 37.5675 21.8002 36.5541ZM14.0925 32.0858C13.0617 30.8058 11.676 29.9913 10.1986 29.6422C9.50611 33.4542 11.8876 37.1452 15.6042 38.0204C15.9887 35.9124 15.4352 33.7396 14.0925 32.0858ZM23.0253 26.3491C24.2495 24.6033 24.6519 22.3971 24.1247 20.3215C20.4731 21.451 18.3502 25.3079 19.3147 29.0604C20.8115 28.5961 22.1157 27.6431 23.0253 26.3491ZM14.4359 24.0568C13.1622 23.134 11.6245 22.6636 10.0611 22.7186C10.3707 26.5756 13.6072 29.5054 17.4136 29.3746C17.2436 27.2387 16.1538 25.2882 14.4359 24.0452M21.9721 15.9928C22.5916 13.9421 22.2855 11.7179 21.1361 9.91858C18.0292 12.1666 17.2207 16.5048 19.3038 19.7513C20.5746 18.8295 21.5121 17.5089 21.9721 15.9928ZM13.1074 16.5746C11.614 16.1125 10.0126 16.1615 8.54931 16.7143C10.0418 20.2759 14.025 22.0177 17.5968 20.6706C16.766 18.7034 15.1233 17.2088 13.1074 16.5863M17.62 7.71923C17.8834 5.50832 17.139 3.41378 15.7533 1.90105C13.0859 4.66828 13.0354 9.07881 15.6387 11.9083C16.7351 10.7717 17.4316 9.29918 17.62 7.71923ZM8.99614 9.88373C7.44461 9.69545 5.8752 10.0307 4.52967 10.8379C6.61849 14.0766 10.841 15.08 14.1269 13.1186C12.971 11.3231 11.0928 10.1389 8.99614 9.88373ZM7.88515 1.9593C6.66128 0.973848 5.15182 0.42581 3.59046 0.400024C3.70628 4.27246 6.79829 7.36799 10.6108 7.42839C10.5429 5.28552 9.54495 3.28311 7.88515 1.9593Z" fill="#C8AB7E"/>
</svg>
